<?xml version="1.0" encoding="UTF-8"?>
<svg id="Layer_1" xmlns="http://www.w3.org/2000/svg" version="1.1" viewBox="0 0 410 410">
  <!-- Generator: Adobe Illustrator 29.6.1, SVG Export Plug-In . SVG Version: 2.1.1 Build 9)  -->
  <rect x="-1.3" y="-.4" width="412" height="411.5" fill="#24b9c0" stroke="#24b9c0" stroke-miterlimit="10"/>
  <g>
    <path d="M196.48,341.13C41.11,344.24-5.77,127.85,136.71,64.57c120.26-53.42,241.45,68.94,192.95,189.36-1.94,1.5-17.86-12.28-20.49-14.59-6.38-5.66-12-12.2-18.18-18.1,2.02-4.57,13.05-4.65,14.18-6.38.97-1.5.93-34.19,0-35.68-2.14-3.35-47.4-12.08-54.19-12.49-8.65-.48,1.33,13.13-7.23,12.12-2.14-2.51-15.84-14.51-16.97-14.51h-64.21v65.42h33.9v19.4l-31.52,1.21c3.88,10.59,5.62,53.3,16.24,56.41,3.8,1.13,15.27-.28,15.27.48v33.9ZM225.53,144.9c-.81-10.71-5.09-48.85-10.87-55.76-2.63-3.15-34.75-3.64-37.26-2.06-4,2.55-11.23,49.66-12.45,57.79h60.57v.04ZM145.4,147.13l8.73-53.02c-20.77,9.82-38.03,21.7-50.67,41.34-2.34,3.6-13.34,19.72-5.05,19.19,14.51-.93,31.76-7.76,47.04-7.52h-.04ZM295.77,154.56c4.61-15.68-50.27-65.79-58.11-58.11l7.23,50.88,50.88,7.23ZM143.18,166.73c-12.45,1.58-55.52,4.85-58.07,18.22-.93,4.85-.81,23.92,1.13,27.84,4.16,8.49,46.43,12.77,56.98,14.51v-60.57h-.04ZM145.6,246.66l-50.83-7.27c2.91,18.39,37.18,55.89,54.47,58.15,5.21.69,3.96-2.18,3.6-6.02-1.29-14.47-7.6-29.86-7.27-44.85,0,0,.04,0,.04,0Z" fill="#3a4047"/>
    <path d="M334.56,295.11h-50.88c.44,11.56,25.86,43.97,23.92,51.6-1.21,4.77-17.94,13.62-21.3,11.19-2.38-1.7-20.93-46.35-24.45-53.14-3.68-1.01-4,.97-6.06,2.38-11.72,8.08-22.27,26.06-35.08,33.94v-150.2l113.83,104.18h0v.04Z" fill="#3a4047"/>
  </g>
</svg>