<?xml version="1.0" encoding="UTF-8"?>
<svg id="Layer_1" xmlns="http://www.w3.org/2000/svg" baseProfile="tiny" version="1.2" viewBox="0 0 580.42 87">
  <!-- Generator: Adobe Illustrator 29.6.1, SVG Export Plug-In . SVG Version: 2.1.1 Build 9)  -->
  <g>
    <path d="M40.83,77.19C2.38,77.96-9.22,24.41,26.04,8.75c29.76-13.22,59.75,17.06,47.75,46.86-.48.37-4.42-3.04-5.07-3.61-1.58-1.4-2.97-3.02-4.5-4.48.5-1.13,3.23-1.15,3.51-1.58.24-.37.23-8.46,0-8.83-.53-.83-11.73-2.99-13.41-3.09-2.14-.12.33,3.25-1.79,3-.53-.62-3.92-3.59-4.2-3.59h-15.89v16.19h8.39v4.8s-7.8.3-7.8.3c.96,2.62,1.39,13.19,4.02,13.96.94.28,3.78-.07,3.78.12v8.39ZM48.02,28.63c-.2-2.65-1.26-12.09-2.69-13.8-.65-.78-8.6-.9-9.22-.51-.99.63-2.78,12.29-3.08,14.3h14.99ZM28.19,29.18l2.16-13.12c-5.14,2.43-9.41,5.37-12.54,10.23-.58.89-3.3,4.88-1.25,4.75,3.59-.23,7.86-1.92,11.64-1.86ZM65.4,31.02c1.14-3.88-12.44-16.28-14.38-14.38l1.79,12.59,12.59,1.79ZM27.64,34.03c-3.08.39-13.74,1.2-14.37,4.51-.23,1.2-.2,5.92.28,6.89,1.03,2.1,11.49,3.16,14.1,3.59v-14.99ZM28.24,53.81l-12.58-1.8c.72,4.55,9.2,13.83,13.48,14.39,1.29.17.98-.54.89-1.49-.32-3.58-1.88-7.39-1.8-11.1Z" fill="#3a4047"/>
    <path d="M75,65.8h-12.59c.11,2.86,6.4,10.88,5.92,12.77-.3,1.18-4.44,3.37-5.27,2.77-.59-.42-5.18-11.47-6.05-13.15-.91-.25-.99.24-1.5.59-2.9,2-5.51,6.45-8.68,8.4v-37.17l28.17,25.78Z" fill="#3a4047"/>
  </g>
  <g>
    <path d="M266.07,27.11c6.32-6.9,16.36-5.06,22.22,1.55,10.97,12.39,2.04,34.76-15.55,31.91-3.22-.52-4.71-4.27-7.03-3.87-.84.15-.58,3.13-2.49,3.79-1.5.52-6.75.28-7.87-.83-2.36-2.34-.32-39.27-.81-45.25.67-3.49,11.53-2.54,11.53-.16v12.86ZM271.82,32.74c-12.59,2.59-6.59,23.55,6.22,17.13,7.59-3.8,4.81-19.4-6.22-17.13Z" fill="#fff"/>
    <path d="M478.01,34.9c3.9-1.81,7.58-9.77,10.92-11.29,1.84-.84,13.09-1.45,11.3,1.95-1.22,2.32-11.33,10.4-11.32,12.83,1.51,5.13,14.12,16.33,14.84,20.27.26,1.44-.21,1.02-.99,1.37-1.9.84-8.85,1.03-10.71.18-2.59-1.18-9.65-14.42-10.54-14.42-1.16,0-3.04,1.89-3.33,2.9-1.89,6.44,4.07,12.96-7.58,11.91-3.91-.35-4-1.41-4.3-5.03-.72-8.63-1.16-33.25.24-41.16.11-.64.31-1.98,1.09-2.15,1.42-.33,10.39-.29,10.39,1.2v21.43Z" fill="#fff"/>
    <path d="M166.23,58.67c-.88,2.89-12.09,3.54-11.3-2.72-6.87,7.86-17.62,5.48-23.75-1.97-13.63-16.56,7.24-42.1,24.52-26.08.87.02.62-3.95,2.45-4.58,1.31-.45,8.08-.42,8.08,1.06v34.29ZM144.04,32.73c-10.27,1.66-9.39,21.28,5.07,17.57,9.12-2.34,6.89-19.5-5.07-17.57Z" fill="#fff"/>
    <path d="M424.32,58.67c-.88,2.89-12.09,3.54-11.3-2.72-5.64,6.49-14.08,6.13-20.58,1.1-15.11-11.69-5.58-36.94,14.3-33.78,3.66.58,4.21,4,7.44,4.63-1.38-6.35,10.14-5.3,10.14-3.5v34.29ZM397.76,48.66c8.92,8.71,21.82-7.43,11.04-14.55-9.91-6.54-18.29,7.47-11.04,14.55Z" fill="#fff"/>
    <path d="M189.44,47.36l8.94-23.38c1.23-1.08,12.32-2.12,11,1.6l-18.82,47.47c-1.4,2.45-11.27,2.6-11.27-.32s5.15-9.59,4.68-13.21c-2.72-10.16-10.51-21.77-12.86-31.63-.38-1.59-.54-3.06-.38-4.69,2.43.41,9.14-.91,10.54.77l8.18,23.39Z" fill="#fff"/>
    <path d="M229.82,22.62c22.9-.42,25.42,34.22,4.24,37.81-28.72,4.87-31.56-37.31-4.24-37.81ZM227.39,32.72c-7.59,1.72-8.19,15.32-1.38,17.41,15.95,4.89,15.16-20.53,1.38-17.41Z" fill="#fff"/>
    <path d="M517.51,44.78c.08,5.96,5.52,6.97,10.47,6.18s6.24-6.42,10.6,1.2c1.94,3.39-4.88,7.09-7.81,7.84-16.94,4.32-30.54-13.41-21.71-28.72,7.07-12.26,25.92-11.45,31.72,1.52,1.11,2.49,3.69,11.98-.29,11.98h-22.99ZM531.53,37.24c-.9-7.92-12.05-7.25-14.03,0h14.03Z" fill="#fff"/>
    <path d="M337.66,26.88v32.34c0,1.76-11.3,1.76-11.3,0V26.88h-10.36v-10.36h31.75c1.49,0,1.71,9.05.42,10.01-1.47,1.09-10.51-.21-10.51.35Z" fill="#fff"/>
    <path d="M108.77,18.14c.47-1.54,8.84-1.56,10.39-1.2.77.18.97,1.52,1.09,2.15,1.31,7.42.87,29.17.24,37.26s-5.23,15.8-14.48,15.97c-3.04.06-11.29-3.39-11.29-6.65,0-1.08,4.31-5.48,5.27-5.74,2.57-.7,3.88,2.66,7.22,1.06.36-.17,1.57-1.43,1.57-1.55V18.14Z" fill="#fff"/>
    <path d="M435.18,55.66c-8.27-8.17-7.56-22.9,2.11-29.68,5.24-3.67,17.57-4.42,22.19.31,2.64,2.69-1.98,8.86-4.52,8.49-1.56-.22-3.55-2.03-5.74-2.19-7.92-.58-11.35,9.07-7.19,15.04,4.73,6.8,12.83-.29,14.68.85.29.18,3.64,5.24,3.76,5.69.82,3.14-4.17,5.52-6.83,6.09-6.42,1.36-13.72.08-18.47-4.61Z" fill="#fff"/>
    <path d="M355.01,23.99c.39-.61,6.07-1.07,7.28-.65,2.43.84,1.29,5.33,3.23,4.54,2.73-1.11,3.03-5.61,9.17-5.25,2.64.15,9.49,3.15,9.04,6.24-.08.58-2.87,5.71-3.15,5.87-3.05,1.78-7.29-5.01-12.28-.96-.32.26-2.38,2.88-2.38,3.07v22.99c0,.96-10.91.96-10.91,0,0-4.73-.96-34.33,0-35.85Z" fill="#fff"/>
    <path d="M548.68,23.99c.34-.53,6.19-1.08,7.27-.81,1.35.34,1.39,5.46,3.24,4.69,2.88-1.19,2.67-5.44,9.01-5.08,2.53.14,9.26,2.72,9.31,5.46.01.67-3.25,6.6-3.62,6.69-3.64.88-8.23-5.53-12.76-.46-3.94,4.41.42,20.61-1.92,24.57-1.56,2.65-10.53,1.31-10.53.77,0-4.73-.96-34.33,0-35.85Z" fill="#fff"/>
  </g>
</svg>