<?xml version="1.0" encoding="UTF-8"?>
<svg id="Layer_1" xmlns="http://www.w3.org/2000/svg" baseProfile="tiny" version="1.2" viewBox="0 0 84.42 87">
  <!-- Generator: Adobe Illustrator 29.6.1, SVG Export Plug-In . SVG Version: 2.1.1 Build 9)  -->
  <path d="M42.33,77.19C3.88,77.96-7.72,24.41,27.54,8.75c29.76-13.22,59.75,17.06,47.75,46.86-.48.37-4.42-3.04-5.07-3.61-1.58-1.4-2.97-3.02-4.5-4.48.5-1.13,3.23-1.15,3.51-1.58.24-.37.23-8.46,0-8.83-.53-.83-11.73-2.99-13.41-3.09-2.14-.12.33,3.25-1.79,3-.53-.62-3.92-3.59-4.2-3.59h-15.89v16.19h8.39v4.8l-7.8.3c.96,2.62,1.39,13.19,4.02,13.96.94.28,3.78-.07,3.78.12v8.39ZM49.52,28.63c-.2-2.65-1.26-12.09-2.69-13.8-.65-.78-8.6-.9-9.22-.51-.99.63-2.78,12.29-3.08,14.3h14.99ZM29.69,29.18l2.16-13.12c-5.14,2.43-9.41,5.37-12.54,10.23-.58.89-3.3,4.88-1.25,4.75,3.59-.23,7.86-1.92,11.64-1.86h-.01ZM66.9,31.02c1.14-3.88-12.44-16.28-14.38-14.38l1.79,12.59,12.59,1.79ZM29.14,34.03c-3.08.39-13.74,1.2-14.37,4.51-.23,1.2-.2,5.92.28,6.89,1.03,2.1,11.49,3.16,14.1,3.59v-14.99h-.01ZM29.74,53.81l-12.58-1.8c.72,4.55,9.2,13.83,13.48,14.39,1.29.17.98-.54.89-1.49-.32-3.58-1.88-7.39-1.8-11.1h.01Z" fill="#3a4047"/>
  <path d="M76.5,65.8h-12.59c.11,2.86,6.4,10.88,5.92,12.77-.3,1.18-4.44,3.37-5.27,2.77-.59-.42-5.18-11.47-6.05-13.15-.91-.25-.99.24-1.5.59-2.9,2-5.51,6.45-8.68,8.4v-37.17l28.17,25.78h0Z" fill="#3a4047"/>
</svg>